<svg xmlns="http://www.w3.org/2000/svg" viewBox="0 0 111.46 129.99"><g id="Layer_2" data-name="Layer 2"><g id="Layer_1-2" data-name="Layer 1"><path d="M100.16,129H11.39s4-27.21,10.71-32.4c4-3.06,11.91-6.66,17.37-8.45.34-.11.21.57.53.47h0c3.31-1.06,5.66-1.69,5.66-1.69h21.1a42.45,42.45,0,0,1,6.93,1.58s.2-.8.57-.69c5,1.47,11.51,4.74,14.92,7.58C97.19,102.07,100.16,129,100.16,129Z" style="fill:#29263d;stroke:#29263d;stroke-miterlimit:10;stroke-width:1.9183000000000001px"/><path d="M73.69,88.5V129H40.54L40,88.61h0c3.31-1.06,5.66-1.69,5.66-1.69h21.1A42.45,42.45,0,0,1,73.69,88.5Z" style="fill:#f79696;stroke:#29263d;stroke-miterlimit:10;stroke-width:1.9183000000000001px"/><line x1="29.39" y1="114.23" x2="29.39" y2="128.99" style="fill:none;stroke:#29263d;stroke-linecap:round;stroke-linejoin:round;stroke-width:1.9183000000000001px"/><line x1="83.3" y1="114.23" x2="83.3" y2="128.99" style="fill:none;stroke:#29263d;stroke-linecap:round;stroke-linejoin:round;stroke-width:1.9183000000000001px"/><path d="M65.47,93.62c-2.78,2-5.6,3.95-9.26,3.95s-6.48-2-9.26-3.95-4.89-5-2-6.09c1.8-.7,2-6.82,1.94-11.38,0-2.82-.23-5-.23-5h19a88.26,88.26,0,0,0-.18,9.59c.16,3.33.65,6.35,1.89,6.83C70.36,88.67,68.25,91.64,65.47,93.62Z" style="fill:#fff"/><path d="M33.17,39.86s-4.26-1-5.88,2.07c-1.47,2.74-.15,10.68,7.19,12.14S37.55,41.35,33.17,39.86Z" style="fill:#fff;stroke:#29263d;stroke-linecap:round;stroke-linejoin:round;stroke-width:1.9183000000000001px"/><path d="M33.47,46s-1.75-2.9-4.08-3.22" style="fill:none;stroke:#29263d;stroke-linecap:round;stroke-linejoin:round;stroke-width:1.9183000000000001px"/><path d="M31.83,44.06a6,6,0,0,0-2,2.56" style="fill:none;stroke:#29263d;stroke-linecap:round;stroke-linejoin:round;stroke-width:1.9183000000000001px"/><path d="M79.52,39.86s4.26-1,5.89,2.07c1.46,2.74.14,10.68-7.19,12.14S75.14,41.35,79.52,39.86Z" style="fill:#fff;stroke:#29263d;stroke-linecap:round;stroke-linejoin:round;stroke-width:1.9183000000000001px"/><path d="M79.22,46s1.75-2.9,4.08-3.22" style="fill:none;stroke:#29263d;stroke-linecap:round;stroke-linejoin:round;stroke-width:1.9183000000000001px"/><path d="M80.87,44.06a6,6,0,0,1,2,2.56" style="fill:none;stroke:#29263d;stroke-linecap:round;stroke-linejoin:round;stroke-width:1.9183000000000001px"/><path d="M65.15,80.34c-3.57-3.81-15.65-2.93-17.85-3V76.14c0-2.1-.15-3.89-.2-4.66h.2a16.57,16.57,0,0,0,17.82,0h.2A87.73,87.73,0,0,0,65.15,80.34Z" style="fill:#f79696"/><path d="M79.25,45.8c0,9.34-5.55,20.19-13.53,25.31h0a16.73,16.73,0,0,1-19,0c-8-5.12-13.53-16-13.53-25.31,0-2.12,0-4.3.12-6.46.6-10.83,4-24.41,22.92-24.41,23,0,22.56,16.58,22.94,24.47C79.25,41.54,79.25,43.7,79.25,45.8Z" style="fill:#fff;stroke:#29263d;stroke-linecap:round;stroke-linejoin:round;stroke-width:1.9183000000000001px"/><path d="M48.62,40.87A1.92,1.92,0,1,1,46.7,39,1.92,1.92,0,0,1,48.62,40.87Z" style="fill:#29263d"/><path d="M67.41,40.87A1.92,1.92,0,1,1,65.5,39,1.91,1.91,0,0,1,67.41,40.87Z" style="fill:#29263d"/><path d="M58.76,35.74a37.58,37.58,0,0,0-.5,9.6c.5,4.5,1.61,6.48.5,6.85a11.85,11.85,0,0,1-3.71,0" style="fill:none;stroke:#29263d;stroke-linecap:round;stroke-linejoin:round;stroke-width:1.9183000000000001px"/><path d="M48.62,34.88s-5.38-1.3-7.24.86c0,0-.49-2.78,2.85-2.84S48.62,34.88,48.62,34.88Z" style="fill:#29263d"/><path d="M63.78,34.88s5.38-1.3,7.24.86c0,0,.49-2.78-2.85-2.84S63.78,34.88,63.78,34.88Z" style="fill:#29263d"/><path d="M48.62,57.88s8.41-2.23,14.22,0a8.74,8.74,0,0,1-7.11,3.83C51,61.71,48.74,58.87,48.62,57.88Z" style="fill:#29263d"/><path d="M51.72,60.9a3.16,3.16,0,0,1,4-1.17,2.56,2.56,0,0,1,2.47-.33c1.36.58,1.63,1.24,1.63,1.24A9.2,9.2,0,0,1,51.72,60.9Z" style="fill:#f79696"/><path d="M33.78,44.06s.33,12.83,5.94,12.83c1.81,0,13.14-5.69,17.42-2.72a8.89,8.89,0,0,1,8.36,0c4.56,2.35,6.57,3.43,8.74,2.72,3.49-1.15,4.64-7.6,4.91-17.49,0,0,3.94,36.51-22.94,36.51S32.77,44.1,32.6,40.85,33.78,44.06,33.78,44.06Z" style="fill:#29263d;stroke:#29263d;stroke-linecap:round;stroke-linejoin:round;stroke-width:1.9183000000000001px"/><path d="M50.19,59.3s6.3,2.89,10.51-.09" style="fill:none;stroke:#fff;stroke-linecap:round;stroke-linejoin:round;stroke-width:1.9183000000000001px"/><path d="M32.6,40.85A30.59,30.59,0,0,0,35.38,28s22.9,1,39.82-4.57c0,0,2.19,12.54,3.93,16.56,0,0,6.9-21.41,4.17-28.86C80.66,4,69.05-.77,63.78,1.55s-23,9.18-27.13,10.72S24.46,21.64,32.6,40.85Z" style="fill:#29263d;stroke:#29263d;stroke-linecap:round;stroke-linejoin:round;stroke-width:1.9183000000000001px"/><path d="M65.47,93.62c-2.78,2-5.6,3.95-9.26,3.95s-6.48-2-9.26-3.95-4.89-5-2-6.09c1.8-.7,2-6.82,1.94-11.38,0-2.82-.23-5-.23-5h19a88.26,88.26,0,0,0-.18,9.59c.16,3.33.65,6.35,1.89,6.83C70.36,88.67,68.25,91.64,65.47,93.62Z" style="fill:none;stroke:#29263d;stroke-linecap:round;stroke-linejoin:round;stroke-width:1.9183000000000001px"/><line x1="1" y1="128.99" x2="110.46" y2="128.99" style="fill:none;stroke:#29263d;stroke-linecap:round;stroke-linejoin:round;stroke-width:2px"/></g></g></svg>